<?xml version="1.0" encoding="utf-8"?>
<!-- Generator: Adobe Illustrator 21.0.0, SVG Export Plug-In . SVG Version: 6.00 Build 0)  -->
<svg version="1.1" id="Layer_1" xmlns="http://www.w3.org/2000/svg" xmlns:xlink="http://www.w3.org/1999/xlink" x="0px" y="0px"
	 viewBox="0 0 500 500" style="enable-background:new 0 0 500 500;" xml:space="preserve">
<style type="text/css">
	.st0{fill:#2B2B2A;}
	.st1{fill:none;stroke:#FFFFFF;stroke-width:13.6408;stroke-miterlimit:10;}
	.st2{fill:#FFFFFF;stroke:#231F20;stroke-miterlimit:10;}
	.st3{fill:#C6C6C6;}
	.st4{fill:#8ED33F;}
	.st5{fill:#A5A5A5;}
	.st6{fill:#ECEDE8;}
	.st7{fill:#ADFF6C;}
	.st8{fill:#749B37;}
</style>
<path class="st0" d="M71,230.7C71,321.4,144.6,395,235.3,395s164.3-73.6,164.3-164.3c0-58.4-33.3-113.1-81-141.7
	c-9.8-5.9-41.3-24.2-83.3-22.6C163.2,69,71,130.1,71,230.7z"/>
<path class="st1" d="M386.5,156.7c-184-26.1-251-14-260.9,13.4C107.3,221,286.1,321.8,269.9,353c-10,19.3-88.4,0.2-185.7-32.1"/>
<path class="st2" d="M151.4,120.7"/>
<polygon class="st3" points="141.4,120.7 217,211.8 141.4,330.7 151.4,218.4 "/>
<polygon class="st0" points="165.9,207.3 191.4,207.3 165.9,167.3 "/>
<polygon class="st0" points="157,281.8 165.9,230.7 191.4,230.7 157,290.7 "/>
<polygon class="st4" points="255.9,330.7 255.9,120.7 333.7,167.3 365.9,230.7 335.9,290.7 "/>
<polygon class="st0" points="272,176.6 272,287.7 312,269.9 332,239.9 304.7,176.6 "/>
<polyline class="st5" points="151.4,218.4 165.9,191.7 157,161 141.4,120.7 "/>
<polygon class="st5" points="165.3,293.2 143.9,303 141.4,330.7 "/>
<polygon class="st5" points="165.9,230.7 174.2,220.5 189,215.5 191.4,230.7 "/>
<polyline class="st5" points="144.4,298 149.5,287.7 151.7,273.3 155,257 151.7,250 159.7,234.7 150.8,225.7 "/>
<polygon class="st6" points="153.7,135.4 159.7,153 174.2,167.3 193.9,184 "/>
<polygon class="st6" points="196.7,187.3 191.4,194 199,204.5 207.5,212.5 217,211.8 "/>
<polyline class="st6" points="209.8,223.1 199,225.7 193.9,238 185.9,260.7 "/>
<polyline class="st6" points="166.9,290.7 166.9,273.5 174.2,271.5 179.2,271.2 "/>
<polygon class="st7" points="255.9,120.7 272,146.3 281.5,146.3 284,154.5 294,165 322,169.6 325.2,162.2 "/>
<polygon class="st8" points="310.9,187.3 325.2,193 332,207.3 341.7,218.4 332,239.9 "/>
<polygon class="st8" points="272,287.7 279.7,293.2 286.3,287.7 302,290.4 316.3,280.9 318.1,260.7 312,269.9 "/>
<polygon class="st8" points="318.1,299.6 280.3,307 272,311.9 255.9,330.7 "/>
<polygon class="st8" points="255.9,284.3 263.7,261.8 259.8,223.1 255.9,199.9 "/>
<polygon class="st7" points="299.7,176.6 290.5,171.7 277,167.3 272,176.6 "/>
<polygon class="st7" points="255.9,167.3 272,199.9 255.9,190.3 "/>
<polygon class="st7" points="321.2,298 335.9,290.7 357.7,247 348.3,247 341.7,256.3 341.7,271.2 329.7,280.9 "/>
<polygon class="st7" points="339.4,178.7 339.4,189.7 341.7,199.9 357.7,218.4 "/>
<path class="st0" d="M112.3,233"/>
</svg>
